<?xml version="1.0" standalone="no"?>
<!DOCTYPE svg PUBLIC "-//W3C//DTD SVG 20010904//EN"
 "http://www.w3.org/TR/2001/REC-SVG-20010904/DTD/svg10.dtd">
<svg version="1.0" xmlns="http://www.w3.org/2000/svg"
 width="904.000000pt" height="904.000000pt" viewBox="0 0 904.000000 904.000000"
 preserveAspectRatio="xMidYMid meet">
<metadata>
Created by potrace 1.14, written by Peter Selinger 2001-2017
</metadata>
<g transform="translate(0.000000,904.000000) scale(0.100000,-0.100000)"
fill="#000000" stroke="none">
<path d="M5484 7482 c-11 -7 -74 -135 -74 -149 0 -5 -13 -35 -30 -68 -16 -33
-30 -65 -30 -70 0 -6 -13 -37 -30 -70 -16 -33 -30 -65 -30 -70 0 -6 -13 -37
-30 -70 -16 -33 -30 -65 -30 -70 0 -6 -13 -37 -30 -70 -16 -33 -30 -65 -30
-70 0 -6 -13 -37 -30 -70 -16 -33 -30 -65 -30 -70 0 -6 -13 -37 -30 -70 -16
-33 -30 -65 -30 -70 0 -6 -13 -37 -30 -70 -16 -33 -30 -65 -30 -70 0 -6 -13
-37 -30 -70 -16 -33 -30 -65 -30 -70 0 -6 -18 -46 -40 -90 -22 -44 -40 -85
-40 -90 0 -6 -13 -37 -30 -70 -16 -33 -30 -65 -30 -70 0 -6 -13 -37 -30 -70
-16 -33 -30 -65 -30 -70 0 -6 -13 -37 -30 -70 -16 -33 -30 -65 -30 -70 0 -6
-13 -37 -30 -70 -16 -33 -30 -65 -30 -70 0 -6 -13 -37 -30 -70 -16 -33 -30
-66 -30 -73 0 -27 -50 -58 -50 -32 0 6 -7 10 -15 10 -8 0 -15 4 -15 8 0 5 -21
20 -47 33 -27 13 -54 29 -61 36 -20 19 -174 91 -207 97 -16 3 -50 12 -75 21
-25 9 -52 19 -60 21 -8 2 -33 10 -55 18 -22 8 -57 15 -78 16 -21 0 -57 4 -80
10 -112 25 -496 33 -647 12 -47 -6 -116 -15 -155 -20 -73 -10 -253 -66 -340
-106 -27 -13 -65 -29 -82 -36 -18 -7 -33 -16 -33 -21 0 -5 -6 -9 -13 -9 -7 0
-23 -9 -35 -20 -12 -11 -25 -20 -29 -20 -4 0 -19 -9 -33 -20 -33 -26 -94 -26
-122 0 -12 11 -28 20 -35 20 -7 0 -13 4 -13 9 0 5 -15 14 -32 21 -18 7 -47 19
-65 26 -51 23 -154 54 -176 54 -12 0 -46 4 -76 10 -235 41 -268 42 -1143 46
l-778 4 0 -1405 0 -1405 624 0 c554 0 626 2 640 16 14 13 16 65 16 415 l0 399
49 0 50 0 5 -87 c3 -49 10 -200 15 -338 6 -137 13 -285 17 -327 l7 -78 628 0
629 0 0 26 c0 25 2 26 34 21 19 -3 50 -12 68 -20 36 -17 178 -52 248 -62 129
-19 183 -26 263 -31 101 -7 103 -11 63 -97 -57 -127 -66 -146 -66 -151 0 -2
-13 -34 -30 -69 -16 -36 -30 -68 -30 -71 0 -3 -27 -62 -60 -130 -33 -69 -60
-128 -60 -133 0 -5 -13 -35 -30 -68 -16 -33 -30 -65 -30 -70 0 -6 -13 -37 -30
-70 -16 -33 -30 -65 -30 -71 0 -5 -16 -41 -35 -79 -19 -38 -31 -73 -27 -77 7
-7 1912 -12 1944 -6 28 6 50 49 53 106 2 31 8 75 13 97 4 22 7 56 6 75 -1 19
3 48 10 65 6 16 11 50 10 75 -1 25 2 48 7 51 6 3 10 40 11 82 1 43 4 77 8 77
8 0 9 6 14 80 2 30 4 55 5 55 5 0 11 43 15 105 2 36 8 76 13 90 5 14 8 43 7
65 0 22 2 42 7 45 4 3 9 34 12 70 2 36 8 72 11 81 4 9 8 45 10 80 1 36 5 69 9
75 3 6 9 40 12 75 3 35 6 70 7 77 1 6 4 12 7 12 3 0 6 28 5 62 -1 35 2 65 7
68 4 3 10 35 13 70 2 36 8 81 13 100 5 19 8 53 7 75 -1 22 2 47 7 56 4 9 10
43 12 76 2 32 7 64 11 71 4 6 8 40 10 75 2 35 8 72 13 83 5 10 8 45 7 77 -1
31 1 57 5 57 4 0 8 6 9 13 4 73 12 126 19 147 5 14 8 47 7 75 -1 27 3 61 10
75 7 14 11 43 10 65 -1 22 2 55 8 72 5 18 11 59 12 90 1 32 7 67 12 78 5 11 9
40 8 65 -1 25 1 50 4 55 8 13 11 30 16 95 2 30 8 66 13 80 5 14 8 49 8 78 -1
28 1 52 5 52 8 0 9 11 11 78 1 26 6 55 10 64 5 10 10 49 12 88 1 38 4 70 8 70
6 0 6 1 13 80 2 30 8 71 13 90 5 19 8 56 7 83 -1 26 2 47 6 47 7 0 7 -3 13 97
6 78 14 113 27 113 15 0 23 -41 25 -126 1 -44 7 -89 12 -100 6 -10 10 -39 9
-64 -1 -25 3 -51 8 -59 6 -7 11 -36 11 -65 1 -28 7 -67 13 -86 6 -19 10 -56 9
-82 -2 -26 2 -58 7 -70 5 -13 11 -45 12 -73 4 -51 7 -69 17 -95 3 -8 5 -35 3
-60 -1 -25 4 -60 11 -78 7 -18 11 -48 9 -65 -2 -18 2 -50 9 -72 7 -22 12 -53
11 -70 -1 -16 2 -48 6 -70 5 -22 11 -67 13 -99 2 -33 8 -62 12 -65 5 -3 9 -37
10 -75 1 -37 5 -76 9 -85 4 -9 9 -41 11 -71 5 -76 6 -80 12 -80 4 0 7 -32 8
-70 2 -39 7 -79 12 -88 5 -10 9 -39 7 -65 -1 -26 1 -47 4 -47 8 0 8 -5 14 -88
3 -34 8 -67 12 -73 4 -6 8 -40 10 -76 2 -35 7 -74 11 -86 4 -12 8 -40 9 -62 1
-22 5 -51 9 -65 4 -14 9 -53 10 -88 2 -35 7 -71 11 -80 4 -9 8 -39 10 -66 1
-27 6 -61 10 -75 4 -14 8 -48 9 -76 1 -27 6 -66 12 -85 6 -19 11 -56 11 -82 0
-26 4 -53 9 -60 4 -7 8 -39 9 -70 1 -31 5 -65 9 -75 4 -10 9 -45 11 -78 2 -33
7 -67 10 -75 3 -8 8 -46 10 -83 2 -37 8 -75 13 -85 5 -9 9 -37 9 -62 1 -41 7
-85 13 -85 1 0 3 -20 4 -45 1 -25 7 -61 13 -80 6 -19 10 -46 9 -60 -2 -14 1
-45 6 -70 4 -25 10 -67 12 -95 5 -47 10 -84 16 -95 1 -3 3 -30 4 -60 2 -30 3
-65 4 -77 l1 -23 994 0 c547 0 997 4 1000 8 3 5 -10 39 -29 77 -19 38 -35 73
-35 78 0 4 -15 38 -32 75 -18 37 -33 72 -34 79 -1 7 -13 36 -27 65 -13 29 -31
69 -38 88 -7 19 -21 50 -31 68 -10 18 -18 38 -18 45 0 7 -14 39 -30 72 -17 33
-30 64 -30 70 0 5 -14 37 -30 70 -17 33 -30 64 -30 70 0 5 -18 46 -40 90 -22
44 -40 83 -40 88 0 4 -9 26 -20 49 -33 69 -23 75 132 82 225 9 485 50 562 87
22 10 44 19 49 19 18 0 217 102 217 111 0 5 6 9 13 9 7 0 32 16 54 35 23 19
45 35 49 35 11 0 136 132 130 137 -2 3 9 19 25 35 16 17 29 37 29 44 0 8 4 14
9 14 13 0 96 173 125 260 53 159 56 196 56 610 0 378 -2 410 -34 540 -9 36
-59 176 -66 185 -4 6 -10 22 -14 37 -3 15 -12 33 -19 40 -6 7 -23 34 -36 61
-13 26 -28 47 -33 47 -4 0 -8 6 -8 14 0 7 -13 27 -29 44 -16 16 -27 33 -24 36
4 3 1 6 -6 6 -16 0 -62 46 -54 54 4 3 1 6 -6 6 -16 0 -42 26 -34 34 4 3 -1 6
-10 6 -9 0 -17 5 -17 10 0 6 -7 10 -15 10 -8 0 -15 7 -15 16 0 8 -5 12 -11 8
-6 -3 -14 -2 -18 4 -7 11 -79 54 -131 79 -100 46 -139 63 -180 77 -74 25 -241
64 -305 72 -33 4 -409 10 -835 13 -426 3 -780 9 -787 14 -13 8 -43 64 -43 79
0 5 -15 39 -32 76 -18 37 -33 72 -34 79 -1 7 -15 38 -30 70 -16 31 -29 63 -30
70 -1 7 -13 36 -27 65 -13 29 -31 69 -38 88 -7 19 -26 59 -41 89 -15 29 -28
58 -28 65 0 6 -14 38 -30 71 -17 33 -30 64 -30 70 0 5 -14 37 -30 70 -17 33
-30 64 -30 70 0 5 -14 37 -30 70 -17 33 -30 64 -30 70 0 5 -14 37 -30 70 -17
33 -30 64 -30 70 0 5 -14 37 -30 70 -17 33 -30 63 -30 68 0 4 -15 38 -32 75
-18 37 -33 72 -34 79 -1 7 -13 36 -27 65 -13 29 -31 69 -38 88 -7 19 -23 54
-36 78 -13 23 -21 42 -18 42 3 0 -4 18 -15 40 -11 23 -18 45 -15 49 2 5 -2 11
-10 15 -8 3 -15 12 -15 20 0 18 -13 27 -26 18z m-4100 -2863 c-2 -4 1 -9 8
-11 17 -6 19 -306 2 -347 -7 -17 -19 -31 -26 -32 -7 0 -23 -2 -35 -5 -45 -8
-48 10 -47 212 1 104 2 190 3 192 1 2 23 2 50 1 28 -2 48 -6 45 -10z m2115
-143 c6 -18 10 -177 10 -372 -1 -318 -2 -343 -19 -362 -21 -22 -72 -22 -94 1
-10 10 -13 92 -13 372 0 198 3 367 8 376 6 11 22 16 53 16 42 0 46 -2 55 -31z
m4139 -5 c7 -1 11 -5 8 -10 -4 -5 -1 -11 5 -13 15 -5 22 -120 22 -358 0 -235
-5 -284 -28 -310 -14 -16 -51 -20 -95 -11 -9 2 -5 696 4 703 5 3 23 5 40 3 17
-2 37 -4 44 -4z"/>
</g>
</svg>
